<svg width="157" height="70" viewBox="0 0 157 70" fill="none" xmlns="http://www.w3.org/2000/svg">
<rect x="2" y="2" width="66" height="66" rx="12" stroke="url(#paint0_linear_1_59)" stroke-width="4"/>
<path d="M21.5573 51.04C19.7707 51.04 18.504 50.5333 17.7573 49.52C17.0373 48.48 16.6773 46.92 16.6773 44.84C16.6773 43.5067 16.8907 41.5067 17.3173 38.84C17.7707 36.1467 18.3973 32.5867 19.1973 28.16L17.0773 23.88C18.3307 23.08 19.664 22.4 21.0773 21.84C22.4907 21.2533 23.904 20.96 25.3173 20.96C26.5973 20.96 27.7173 21.16 28.6773 21.56C29.664 21.9333 30.5173 22.6667 31.2373 23.76C31.9573 24.8267 32.5573 26.4 33.0373 28.48C33.544 30.5333 33.9573 33.24 34.2773 36.6H34.7573C35.3973 34.76 36.1973 32.92 37.1573 31.08C38.1173 29.24 39.264 27.56 40.5973 26.04C41.9307 24.52 43.4773 23.3067 45.2373 22.4C47.024 21.4667 49.0507 21 51.3173 21C52.5707 21 53.3973 21.3733 53.7973 22.12C54.1973 22.84 54.3973 23.7067 54.3973 24.72C54.3973 25.1467 54.3173 25.84 54.1573 26.8C54.024 27.7333 53.8373 28.8267 53.5973 30.08C53.3573 31.3067 53.104 32.6 52.8373 33.96C52.5973 35.2933 52.3573 36.6 52.1173 37.88C51.8773 39.1333 51.6773 40.2533 51.5173 41.24C51.384 42.2 51.3173 42.9333 51.3173 43.44C51.3173 44.8 51.4107 45.9467 51.5973 46.88C51.8107 47.8133 52.1173 48.6 52.5173 49.24C50.9173 50.44 49.264 51.04 47.5573 51.04C45.7707 51.04 44.504 50.5333 43.7573 49.52C43.0373 48.48 42.6773 46.92 42.6773 44.84C42.6773 43.6933 42.8373 42.0533 43.1573 39.92C43.504 37.7867 43.9707 35.04 44.5573 31.68H43.9173C42.7707 33.2 41.7707 34.9067 40.9173 36.8C40.064 38.6667 39.384 40.5333 38.8773 42.4C38.3973 44.24 38.0773 45.88 37.9173 47.32C37.2507 47.9333 36.5173 48.4 35.7173 48.72C34.944 49.0133 34.1707 49.16 33.3973 49.16C32.7573 49.16 32.1573 48.92 31.5973 48.44C31.0373 47.9333 30.5173 47.0533 30.0373 45.8C29.5573 44.5467 29.1307 42.7867 28.7573 40.52C28.4107 38.2267 28.1307 35.28 27.9173 31.68H27.2773C26.9307 33.2 26.6107 34.76 26.3173 36.36C26.024 37.9333 25.784 39.36 25.5973 40.64C25.4107 41.92 25.3173 42.8533 25.3173 43.44C25.3173 44.8 25.4107 45.9467 25.5973 46.88C25.8107 47.8133 26.1173 48.6 26.5173 49.24C24.9173 50.44 23.264 51.04 21.5573 51.04Z" fill="white"/>
<path d="M91.7709 30.24C92.5443 29.1733 93.5976 28.3067 94.9309 27.64C96.2909 26.9467 97.7976 26.6 99.4509 26.6C101.398 26.6 103.158 27.0667 104.731 28C106.304 28.9333 107.544 30.2667 108.451 32C109.358 33.7067 109.811 35.6667 109.811 37.88C109.811 40.0933 109.358 42.08 108.451 43.84C107.544 45.5733 106.291 46.9333 104.691 47.92C103.118 48.88 101.371 49.36 99.4509 49.36C97.7443 49.36 96.2243 49.0267 94.8909 48.36C93.5843 47.6933 92.5443 46.84 91.7709 45.8V49H87.2109V19.4H91.7709V30.24ZM105.171 37.88C105.171 36.36 104.851 35.0533 104.211 33.96C103.598 32.84 102.771 32 101.731 31.44C100.718 30.8533 99.6243 30.56 98.4509 30.56C97.3043 30.56 96.2109 30.8533 95.1709 31.44C94.1576 32.0267 93.3309 32.88 92.6909 34C92.0776 35.12 91.7709 36.44 91.7709 37.96C91.7709 39.48 92.0776 40.8133 92.6909 41.96C93.3309 43.08 94.1576 43.9333 95.1709 44.52C96.2109 45.1067 97.3043 45.4 98.4509 45.4C99.6243 45.4 100.718 45.1067 101.731 44.52C102.771 43.9067 103.598 43.0267 104.211 41.88C104.851 40.7333 105.171 39.4 105.171 37.88ZM123.88 49.36C121.8 49.36 119.92 48.8933 118.24 47.96C116.56 47 115.24 45.6667 114.28 43.96C113.32 42.2267 112.84 40.2267 112.84 37.96C112.84 35.72 113.334 33.7333 114.32 32C115.307 30.2667 116.654 28.9333 118.36 28C120.067 27.0667 121.974 26.6 124.08 26.6C126.187 26.6 128.094 27.0667 129.8 28C131.507 28.9333 132.854 30.2667 133.84 32C134.827 33.7333 135.32 35.72 135.32 37.96C135.32 40.2 134.814 42.1867 133.8 43.92C132.787 45.6533 131.4 47 129.64 47.96C127.907 48.8933 125.987 49.36 123.88 49.36ZM123.88 45.4C125.054 45.4 126.147 45.12 127.16 44.56C128.2 44 129.04 43.16 129.68 42.04C130.32 40.92 130.64 39.56 130.64 37.96C130.64 36.36 130.334 35.0133 129.72 33.92C129.107 32.8 128.294 31.96 127.28 31.4C126.267 30.84 125.174 30.56 124 30.56C122.827 30.56 121.734 30.84 120.72 31.4C119.734 31.96 118.947 32.8 118.36 33.92C117.774 35.0133 117.48 36.36 117.48 37.96C117.48 40.3333 118.08 42.1733 119.28 43.48C120.507 44.76 122.04 45.4 123.88 45.4ZM149.268 37.84L156.388 49H151.228L146.468 41.52L141.988 49H137.228L144.348 38.16L137.228 26.96H142.388L147.148 34.44L151.628 26.96H156.388L149.268 37.84Z" fill="white"/>
<defs>
<linearGradient id="paint0_linear_1_59" x1="3.29954e-07" y1="5" x2="70" y2="70" gradientUnits="userSpaceOnUse">
<stop stop-color="#326CFF"/>
<stop offset="1" stop-color="#26FFF2"/>
</linearGradient>
</defs>
</svg>
